# xmcd CD database file
#
# Track frame offsets:
#	150
#	18497
#	34889
#	55486
#	74051
#	95165
#	113595
#	133036
#	155323
#	175718
#	198264
#	217765
#	232582
#	253508
#	270163
#	289394
#
# Disc length: 4098 seconds
#
# Revision: 0
# Processed by: cddbd v1.5.1PL0 Copyright (c) Steve Scherf et al.
# Submitted via: CDex 1.51
#
DISCID=dd100010
DTITLE=サザンオールスターズ - SAS46-1
DYEAR=1978
DGENRE=JPop
TTITLE0=01.[1978.06.25]勝手にシンドバッド
TTITLE1=02.[1978.11.25]気分しだいで責めないで
TTITLE2=03.[1979.03.25]いとしのエリー
TTITLE3=04.[1979.07.25]思い過ごしも恋のうち
TTITLE4=05.[1979.10.25]Ｃ調言葉に御用心
TTITLE5=06.[1980.02.21]涙のアベニュー
TTITLE6=07.[1980.03.21]恋するマンスリー・デイ
TTITLE7=08.[1980.05.21]いなせなロコモーション
TTITLE8=09.[1980.06.21]ジャズマン(JAZZ MAN)
TTITLE9=10.[1980.07.21]わすれじのレイド・バック
TTITLE10=11.[1980.11.21]シャ・ラ・ラ
TTITLE11=12.[1981.06.21]Big Star Blues (ビッグスターの悲劇)
TTITLE12=13.[1981.09.21]栞のテーマ
TTITLE13=14.[1982.01.21]チャコの海岸物語
TTITLE14=15.[1982.05.21]匂艶 THE NIGHT CLUB
TTITLE15=16.[1982.10.05]Ya Ya(あの時代(とき)を忘れない)
EXTD=YEAR: 1978-1982
EXTT0=
EXTT1=
EXTT2=
EXTT3=
EXTT4=
EXTT5=
EXTT6=
EXTT7=
EXTT8=
EXTT9=
EXTT10=
EXTT11=
EXTT12=
EXTT13=
EXTT14=
EXTT15=
PLAYORDER=
